<svg xmlns="http://www.w3.org/2000/svg" width="19.545" height="15.202" viewBox="0 0 19.545 15.202">
  <path id="address-card" d="M17.917,32H1.629A1.629,1.629,0,0,0,0,33.629V45.573A1.629,1.629,0,0,0,1.629,47.2H17.917a1.629,1.629,0,0,0,1.629-1.629V33.629A1.629,1.629,0,0,0,17.917,32Zm0,13.573H1.629V33.629H17.917ZM7.058,39.6a2.172,2.172,0,1,0-2.172-2.172A2.174,2.174,0,0,0,7.058,39.6Zm-3.04,4.343H10.1a.712.712,0,0,0,.76-.652v-.652a2.137,2.137,0,0,0-2.28-1.955,8.192,8.192,0,0,1-1.52.271,8.073,8.073,0,0,1-1.52-.271,2.137,2.137,0,0,0-2.28,1.955v.652A.712.712,0,0,0,4.018,43.944Zm8.2-2.172h3.8a.272.272,0,0,0,.271-.271v-.543a.272.272,0,0,0-.271-.271h-3.8a.272.272,0,0,0-.271.271V41.5A.272.272,0,0,0,12.216,41.773Zm0-2.172h3.8a.272.272,0,0,0,.271-.271v-.543a.272.272,0,0,0-.271-.271h-3.8a.272.272,0,0,0-.271.271v.543A.272.272,0,0,0,12.216,39.6Zm0-2.172h3.8a.272.272,0,0,0,.271-.271v-.543a.272.272,0,0,0-.271-.271h-3.8a.272.272,0,0,0-.271.271v.543A.272.272,0,0,0,12.216,37.429Z" transform="translate(0 -32)" fill="#e48646"/>
</svg>
