<svg xmlns="http://www.w3.org/2000/svg" width="17.807" height="20.351" viewBox="0 0 17.807 20.351">
  <path id="bell" d="M17.464,14.4c-.768-.825-2.2-2.066-2.2-6.133A6.277,6.277,0,0,0,10.174,2.1V1.272a1.271,1.271,0,1,0-2.542,0V2.1A6.277,6.277,0,0,0,2.546,8.267c0,4.066-1.437,5.307-2.2,6.133A1.242,1.242,0,0,0,0,15.263a1.273,1.273,0,0,0,1.276,1.272H16.53a1.273,1.273,0,0,0,1.276-1.272,1.241,1.241,0,0,0-.342-.863Zm-14.781.227c.843-1.112,1.766-2.954,1.77-6.337,0-.008,0-.015,0-.023a4.452,4.452,0,0,1,8.9,0c0,.008,0,.015,0,.023,0,3.383.927,5.225,1.77,6.337ZM8.9,20.351a2.543,2.543,0,0,0,2.543-2.544H6.36A2.543,2.543,0,0,0,8.9,20.351Z" transform="translate(0.001)" fill="#e48646"/>
</svg>
