<svg xmlns="http://www.w3.org/2000/svg" width="19.206" height="14.405" viewBox="0 0 19.206 14.405">
  <path id="chart-bar" d="M12.484,73.6h1.44a.516.516,0,0,0,.48-.48V68.081a.516.516,0,0,0-.48-.48h-1.44a.516.516,0,0,0-.48.48v5.042A.516.516,0,0,0,12.484,73.6Zm3.6,0h1.44a.516.516,0,0,0,.48-.48V64.48a.516.516,0,0,0-.48-.48h-1.44a.516.516,0,0,0-.48.48v8.643A.516.516,0,0,0,16.085,73.6Zm-10.8,0h1.44a.516.516,0,0,0,.48-.48V70.482a.516.516,0,0,0-.48-.48H5.282a.516.516,0,0,0-.48.48v2.641A.516.516,0,0,0,5.282,73.6Zm3.6,0h1.44a.516.516,0,0,0,.48-.48V65.681a.516.516,0,0,0-.48-.48H8.883a.516.516,0,0,0-.48.48v7.442A.516.516,0,0,0,8.883,73.6ZM18.606,76H2.4V64.6a.6.6,0,0,0-.6-.6H.6a.6.6,0,0,0-.6.6V77.2a1.2,1.2,0,0,0,1.2,1.2H18.606a.6.6,0,0,0,.6-.6V76.6A.6.6,0,0,0,18.606,76Z" transform="translate(0 -64)" fill="#545e71"/>
</svg>
