<svg xmlns="http://www.w3.org/2000/svg" width="25.679" height="14.853" viewBox="0 0 25.679 14.853">
  <g id="Group_659" data-name="Group 659" transform="translate(-3117.861 -2403.46)">
    <path id="Path_450" data-name="Path 450" d="M3143.107,2409.626h-4.989V2405.9h2.264Zm-22.839,8.686a1.965,1.965,0,0,1-1.961-1.963,1.805,1.805,0,0,1,.056-.444,1.93,1.93,0,0,1,.251-.6c.032-.049.06-.088.084-.121l.017-.023,0-.007c.022-.029.048-.059.072-.087l.011-.008.035-.037c.045-.051.062-.071.076-.084l.006-.005.043-.04c.022-.017.05-.041.082-.07l.017-.01.03-.023a1.442,1.442,0,0,1,.159-.111l.082-.048.025-.013h0l.024-.009.033-.018c.027-.015.052-.027.059-.029l.032-.014.043-.011.051-.026h0c.013,0,.035-.012.068-.025l.039-.01.015,0,.021-.007s.019-.005.071-.015l.1-.024.114-.016.035-.005h.007l.03,0a1.45,1.45,0,0,1,.173-.008,1.259,1.259,0,0,1,.17.008l.029,0h.007l.055.007c.042.006.079.01.1.015l.072.019a.531.531,0,0,0,.071.014l.033.013.037.008.04.011.073.029.038.018.035.009.043.017.061.032.017.01.023.009a.268.268,0,0,1,.033.02l.1.055a1.281,1.281,0,0,1,.138.1l.045.038.024.012c.026.024.053.046.066.059a.385.385,0,0,0,.048.043c.025.026.052.053.079.083l.011.014.017.016.006,0c.023.029.045.056.072.089a.407.407,0,0,0,.052.065l.022.033v0l.035.058a1.894,1.894,0,0,1,.251.6l.025.1a2.056,2.056,0,0,1,.032.345A1.963,1.963,0,0,1,3120.269,2418.312Zm9.075,0a1.964,1.964,0,0,1-1.96-1.964,1.826,1.826,0,0,1,.055-.445,1.986,1.986,0,0,1,.244-.59c.035-.052.064-.1.091-.131l.018-.025,0-.007c.023-.028.046-.058.07-.085l.012-.009.032-.035c.045-.051.063-.072.076-.084l0,0a.612.612,0,0,0,.045-.041c.021-.017.048-.04.08-.068l.017-.01.031-.025a1.594,1.594,0,0,1,.16-.111l.082-.049.024-.013h0l.027-.009.03-.017a.442.442,0,0,1,.061-.03.366.366,0,0,1,.037-.015h0l.04-.009.048-.025h0l.069-.024.039-.011.016,0,.02-.007.071-.015c.07-.016.094-.023.1-.023s.053-.008.114-.016l.035,0h.007l.029,0a1.794,1.794,0,0,1,.345,0l.029,0h.009l.053.007c.04.006.078.01.1.015l.071.019c.069.013.069.016.069.013l.036.013.035.008a.279.279,0,0,1,.04.011c.044.016.061.021.073.027l.039.019.032.008.044.018a.669.669,0,0,1,.062.032l.018.008.023.01.032.019c.024.014.054.032.1.055a1.447,1.447,0,0,1,.139.1l.045.038.023.01.067.059a.355.355,0,0,0,.05.046c.025.025.051.052.077.081l.012.015.018.017.006.006.07.086a.455.455,0,0,0,.052.066l.022.032v0l.037.059a1.98,1.98,0,0,1,.251.594l.024.1a1.955,1.955,0,0,1-1.928,2.31Zm2.318-3.687-.025-.027-.018-.024-.008-.006h0c-.018-.021-.048-.061-.1-.116a.461.461,0,0,0-.066-.068c-.033-.037-.066-.073-.1-.109a.662.662,0,0,0-.062-.054h0c-.054-.051-.083-.076-.1-.092a.764.764,0,0,0-.109-.081c-.076-.06-.148-.107-.209-.146l-.022-.015-.021-.01c-.007,0-.035-.02-.082-.046a1.131,1.131,0,0,0-.112-.059c-.037-.019-.077-.04-.126-.061-.021-.007-.054-.024-.111-.043s-.1-.037-.124-.047a3.058,3.058,0,0,0-.293-.079c.01,0-.025-.008-.073-.019-.085-.017-.146-.025-.188-.03a.109.109,0,0,1-.03,0c-.015,0-.042-.007-.073-.009a2.365,2.365,0,0,0-.268-.012,2.313,2.313,0,0,0-.281.013c-.062,0-.08.013-.081.011a1.518,1.518,0,0,0-.194.03c-.057.011-.088.022-.092.022a1.325,1.325,0,0,0-.162.04c-.029.008-.066.018-.108.033-.021.008-.065.02-.133.051s-.086.033-.1.036c-.056.024-.1.045-.132.064a1.137,1.137,0,0,0-.11.056c-.061.035-.092.055-.11.066a2.633,2.633,0,0,0-.232.159.569.569,0,0,0-.107.085c-.008.007-.043.034-.092.075l-.045.039-.005.007-.021.021c-.045.044-.077.081-.1.107a.4.4,0,0,0-.034.034l-.012.013c-.059.066-.1.113-.134.159l-.014.019-.007.01s0,0-.014.021c-.041.054-.076.107-.108.155h0a2.921,2.921,0,0,0-.361.833h-3.5l-.064-.291h-.033a2.826,2.826,0,0,0-.223-.459l-.005-.021-.042-.062c-.024-.035-.057-.089-.1-.153l0-.012-.025-.028-.015-.021-.009-.006v0c-.02-.021-.05-.06-.1-.116a.432.432,0,0,0-.058-.062c-.035-.039-.072-.077-.109-.115a.648.648,0,0,0-.062-.054h0c-.055-.052-.083-.075-.1-.092a.852.852,0,0,0-.108-.08,2.339,2.339,0,0,0-.21-.147l-.021-.015-.021-.01c-.007,0-.035-.02-.083-.046a1,1,0,0,0-.107-.057c-.036-.02-.079-.041-.13-.063-.021-.007-.052-.024-.108-.042s-.1-.037-.126-.048a1.16,1.16,0,0,0-.132-.039,1.255,1.255,0,0,0-.161-.038c.01,0-.024-.008-.073-.02-.085-.017-.146-.023-.189-.029l-.029,0c-.017,0-.044-.006-.078-.008a2.274,2.274,0,0,0-.262-.012,2.214,2.214,0,0,0-.276.013.853.853,0,0,0-.086.011c-.046.007-.109.012-.194.03-.057.013-.089.023-.092.023a1.163,1.163,0,0,0-.162.04,1.128,1.128,0,0,0-.109.032c-.02.009-.064.02-.132.051s-.086.034-.1.037a1.384,1.384,0,0,0-.134.065c-.063.028-.1.05-.107.054-.062.035-.093.055-.111.066a2.587,2.587,0,0,0-.232.159.628.628,0,0,0-.108.084c-.006.008-.041.034-.09.075l-.045.039-.005.006-.021.022c-.047.045-.079.083-.1.109a.4.4,0,0,0-.031.032l-.014.014c-.059.065-.1.113-.134.158l-.014.018-.006.011s0,0-.013.018c-.033.046-.063.09-.092.131v-11.3h16.928v1.761a.46.46,0,0,0-.061.218v10.184h-2.591l-.065-.291h-.032a2.869,2.869,0,0,0-.224-.462l0-.018-.042-.062c-.023-.036-.057-.09-.1-.155Zm7.8,3.688a1.966,1.966,0,0,1-1.96-1.964,1.9,1.9,0,0,1,.054-.444,1.976,1.976,0,0,1,.252-.6c.033-.048.061-.088.085-.12l.019-.026,0-.008c.021-.027.045-.056.069-.083l.01-.008.034-.037c.046-.051.062-.072.077-.083l.007-.007a.51.51,0,0,0,.042-.039c.022-.017.049-.04.081-.068l.019-.01.029-.024a1.8,1.8,0,0,1,.161-.111l.081-.049.024-.013h0l.027-.009.031-.017.06-.031.032-.013s0,0,0,0l.039-.009.048-.026h0c.012,0,.035-.012.069-.025l.037-.009.016-.005.021-.007a.706.706,0,0,1,.071-.014l.095-.024c.009,0,.055-.01.115-.017l.033,0h.009l.03,0a1.886,1.886,0,0,1,.343,0l.029,0h.013l.051.007c.04,0,.078.01.1.015l.072.018a.539.539,0,0,0,.068.014l.036.013.035.008c.011,0,.024.006.039.012.045.016.061.022.075.028l.039.019.032.009c.007,0,.022.009.043.017,0,0,.033.016.063.032l.017.01.022.009.033.019c.024.014.052.032.1.055a1.413,1.413,0,0,1,.138.1l.046.037.024.012c.026.024.053.046.065.059a.4.4,0,0,0,.049.044l.077.082.012.015.019.017.006.006c.021.027.043.053.069.084a.4.4,0,0,0,.055.071.348.348,0,0,1,.02.031v0l.037.058a1.925,1.925,0,0,1,.25.6l.026.113a1.907,1.907,0,0,1,.031.336A1.964,1.964,0,0,1,3139.46,2418.313Zm2.793-2.69-.064-.291h-.032a2.9,2.9,0,0,0-.224-.46l-.005-.019-.042-.063c-.024-.035-.057-.089-.1-.154l0-.009-.025-.03-.016-.021-.006,0,0,0c-.019-.021-.048-.06-.1-.116a.482.482,0,0,0-.065-.068c-.033-.038-.068-.074-.1-.109s-.057-.049-.063-.054c-.056-.052-.085-.077-.1-.093a.855.855,0,0,0-.108-.081c-.076-.061-.149-.107-.21-.147l-.022-.014-.021-.01-.082-.047c-.018-.009-.053-.031-.111-.058-.035-.019-.078-.04-.127-.062a1.176,1.176,0,0,0-.112-.043c-.054-.022-.1-.037-.122-.047-.043-.014-.081-.026-.119-.035a1.392,1.392,0,0,0-.173-.043c.009,0-.026-.008-.076-.019-.085-.017-.145-.024-.188-.03a.117.117,0,0,1-.029,0,.716.716,0,0,0-.073-.009,2.352,2.352,0,0,0-.268-.012,2.24,2.24,0,0,0-.281.014c-.062,0-.08.013-.08.011a1.639,1.639,0,0,0-.193.03c-.057.012-.088.022-.091.022a1.15,1.15,0,0,0-.16.039c-.031.008-.068.018-.111.033-.02.009-.065.02-.133.051s-.085.034-.1.037a1.313,1.313,0,0,0-.132.064c-.065.028-.1.051-.11.055-.061.035-.091.055-.111.066-.079.049-.156.1-.236.161a.637.637,0,0,0-.1.082c-.008.008-.041.034-.09.076l-.045.039-.007.009-.017.017c-.046.045-.079.083-.1.109l-.034.034-.013.014c-.059.066-.1.112-.133.158l-.011.013-.011.016s0,0-.012.017c-.041.056-.078.11-.111.159h0a2.923,2.923,0,0,0-.36.833h-1.022v-9.72h1.538v4.186a.464.464,0,0,0,.464.463h5.885v5.07Z" fill="#545e71"/>
  </g>
</svg>
